<svg version="1.1" xmlns="http://www.w3.org/2000/svg" viewBox="0 0 256 256" width="400" height="400">
    <g fill="#ffc0cb" transform="scale(3.2,3.2)">
        <path d="M55.80859,4.75781l-1.60156,8.14258l-6.39844,1.35742l6.39844,1.35742l1.60156,8.14258l1.59961,-8.14258l6.40039,-1.35742l-6.40039,-1.35742zM38,8c-17.66143,0 -32,14.33857 -32,32c0,17.66143 14.33857,32 32,32c17.66143,0 32,-14.33857 32,-32c0,-4.91859 -1.11235,-9.58425 -3.09766,-13.75c-0.04804,-0.11012 -0.11552,-0.21069 -0.19922,-0.29687c-0.00674,-0.04052 -0.00865,-0.0826 -0.01562,-0.12305c-0.0761,-0.48104 -0.48763,-0.83732 -0.97461,-0.84375c-0.29963,-0.00389 -0.58522,0.12678 -0.77817,0.35605c-0.19295,0.22927 -0.27293,0.53298 -0.21792,0.82755c0.18636,1.08106 0.2832,2.19408 0.2832,3.33008c0,3.65474 -1.00254,7.06511 -2.74805,9.98633c-0.14259,0.23872 -0.17939,0.52602 -0.10156,0.79297v0.00391l0.00195,0.00391c0.12682,0.42273 0.51569,0.71239 0.95703,0.71289c0.35208,0.00042 0.67846,-0.18428 0.85938,-0.48633c1.55118,-2.59601 2.55916,-5.55302 2.89648,-8.70703c0.73744,2.60352 1.13477,5.35112 1.13477,8.19336c0,16.58057 -13.41943,30 -30,30c-16.58057,0 -30,-13.41943 -30,-30c0,-15.9756 12.49419,-28.89189 28.23438,-29.82227c-2.6705,1.28358 -5.07197,3.03521 -6.99023,5.25c-0.3619,0.41745 -0.31686,1.04923 0.10059,1.41113c0.41745,0.3619 1.04923,0.31686 1.41113,-0.10059c2.88672,-3.33295 6.88309,-5.67519 11.41406,-6.45508c0.48905,-0.07739 0.84785,-0.50098 0.84375,-0.99609c0.01556,-0.51913 -0.36884,-0.96378 -0.88477,-1.02344c-1.35147,-0.17448 -2.7311,-0.26367 -4.12891,-0.26367zM27.70313,18.34766l-0.80078,0.40234l-0.1582,0.88086l0.61133,0.6543l0.34766,0.0625l0.80078,-0.40039l0.1582,-0.88281l-0.61328,-0.6543zM26.07617,21.99219l-0.80078,0.40234l-0.1582,0.88086l0.61133,0.65625l0.34766,0.06055l0.80078,-0.40039l0.1582,-0.88281l-0.61328,-0.6543zM41.80859,25.75781l-0.96875,5.06641l-4.03125,0.95898l4.03125,0.82031l0.96875,5.06641l0.9668,-5.06641l4.0332,-0.82031l-4.0332,-0.95898zM25.18555,25.88281l-0.80078,0.40234l-0.1582,0.88281l0.61133,0.6543l0.34766,0.06055l0.80078,-0.40039l0.1582,-0.88281l-0.61133,-0.6543zM25.05078,29.87305l-0.80078,0.40234l-0.1582,0.88086l0.61133,0.6543l0.34766,0.0625l0.80078,-0.40039l0.1582,-0.88281l-0.61133,-0.6543zM25.69922,33.81445l-0.80078,0.40039l-0.1582,0.88281l0.61133,0.6543l0.34766,0.0625l0.80078,-0.40234l0.1582,-0.88281l-0.61133,-0.6543zM27.12305,37.54297l-0.80078,0.40234l-0.1582,0.88086l0.61328,0.6543l0.3457,0.0625l0.80078,-0.40039l0.1582,-0.88281l-0.61133,-0.6543zM29.22852,40.93359l-0.80078,0.40234l-0.1582,0.88086l0.61133,0.6543l0.34766,0.0625l0.80078,-0.40039l0.1582,-0.88281l-0.61328,-0.6543zM60.73633,42.21094l-0.80273,0.40234l-0.15625,0.88086l0.61133,0.65625l0.34766,0.06055l0.80078,-0.40039l0.1582,-0.88281l-0.61328,-0.6543zM31.94922,43.85352l-0.80078,0.40234l-0.1582,0.88086l0.61133,0.65625l0.34766,0.06055l0.80078,-0.40039l0.1582,-0.88281l-0.61328,-0.6543zM57.78711,44.9043l-0.80078,0.40234l-0.1582,0.88086l0.61133,0.6543l0.34766,0.0625l0.80078,-0.40039l0.1582,-0.88281l-0.61328,-0.6543zM35.18164,46.19336l-0.80078,0.40234l-0.1582,0.88086l0.61328,0.6543l0.3457,0.0625l0.80078,-0.40039l0.1582,-0.88281l-0.61133,-0.6543zM54.37305,46.97656l-0.80078,0.40234l-0.1582,0.88281l0.61328,0.6543l0.3457,0.06055l0.80078,-0.40039l0.1582,-0.88281l-0.61133,-0.6543zM38.80859,47.86133l-0.80078,0.40039l-0.1582,0.88281l0.61133,0.6543l0.34766,0.0625l0.80078,-0.40234l0.1582,-0.88281l-0.61133,-0.6543zM50.62305,48.34766l-0.80078,0.40039l-0.1582,0.88281l0.61133,0.6543l0.34766,0.0625l0.80078,-0.40234l0.1582,-0.88281l-0.61133,-0.6543zM42.6875,48.80273l-0.80078,0.40234l-0.1582,0.88086l0.61133,0.6543l0.34766,0.0625l0.80078,-0.40039l0.1582,-0.88281l-0.61328,-0.6543zM46.67773,48.96094l-0.80078,0.40039l-0.1582,0.88281l0.61133,0.6543l0.34766,0.0625l0.80078,-0.40234l0.1582,-0.88086l-0.61328,-0.6543zM68.80859,62.75781l-0.96875,5.06641l-4.03125,0.95898l4.03125,0.82031l0.96875,5.06641l0.9668,-5.06641l4.0332,-0.82031l-4.0332,-0.95898z"/>
    </g>
</svg>
